<svg version="1.1" id="Layer_1" xmlns="http://www.w3.org/2000/svg" xmlns:xlink="http://www.w3.org/1999/xlink" x="0px" y="0px"
	 width="100%" viewBox="0 0 256 256" enable-background="new 0 0 256 256" xml:space="preserve">
<path fill="#FFFFFF" opacity="1.000000" stroke="none" 
	d="
M56.000000,257.000000 
	C37.685505,257.000000 19.371014,257.000000 1.028260,257.000000 
	C1.028260,171.773209 1.028260,86.546402 1.028260,1.000000 
	C39.020298,1.000000 77.041489,1.000000 115.399124,1.382162 
	C113.996399,2.122689 112.239365,2.411175 110.520905,2.850545 
	C97.550476,6.166777 87.104530,13.253210 78.746132,23.698750 
	C66.126907,39.469055 62.114807,57.462811 66.529152,76.762650 
	C71.243164,97.372627 83.786385,112.169022 103.682259,120.245674 
	C120.121178,126.918999 136.876144,127.255783 152.668518,119.488792 
	C176.500534,107.767738 189.488953,88.583969 189.065826,61.163857 
	C188.733139,39.603657 179.399445,22.938784 161.858948,11.201847 
	C155.024078,6.628407 146.664871,4.333023 139.000000,1.000000 
	C178.293274,1.000000 217.586548,1.000000 256.939911,1.000000 
	C256.939911,86.333336 256.939911,171.666672 256.939911,257.000000 
	C238.566696,257.000000 220.251999,257.000000 201.596008,256.621826 
	C221.954407,252.736465 234.907837,236.967102 235.951660,216.096664 
	C236.798019,199.174515 234.802460,182.441269 229.863052,166.279999 
	C224.833817,149.824890 216.392715,135.381409 199.587509,128.371613 
	C188.721512,123.839180 177.657440,121.426353 166.727814,129.605255 
	C153.645813,139.394821 139.161835,145.254501 122.209679,143.082474 
	C113.205177,141.928726 105.207764,138.551147 97.536758,134.030502 
	C92.436256,131.024719 87.657295,127.070946 82.168388,125.219910 
	C73.711044,122.367828 65.068253,125.044373 57.341022,128.463364 
	C42.529812,135.016754 34.304623,147.689209 29.030647,162.438431 
	C22.133873,181.725998 20.770155,201.840622 22.289717,221.956589 
	C23.042624,231.923569 27.684906,241.371140 36.706146,247.103485 
	C42.780842,250.963501 49.544537,253.739212 56.000000,257.000000 
z"/>
<path fill="#000000" opacity="1.000000" stroke="none" 
	d="
M56.468658,257.000000 
	C49.544537,253.739212 42.780842,250.963501 36.706146,247.103485 
	C27.684906,241.371140 23.042624,231.923569 22.289717,221.956589 
	C20.770155,201.840622 22.133873,181.725998 29.030647,162.438431 
	C34.304623,147.689209 42.529812,135.016754 57.341022,128.463364 
	C65.068253,125.044373 73.711044,122.367828 82.168388,125.219910 
	C87.657295,127.070946 92.436256,131.024719 97.536758,134.030502 
	C105.207764,138.551147 113.205177,141.928726 122.209679,143.082474 
	C139.161835,145.254501 153.645813,139.394821 166.727814,129.605255 
	C177.657440,121.426353 188.721512,123.839180 199.587509,128.371613 
	C216.392715,135.381409 224.833817,149.824890 229.863052,166.279999 
	C234.802460,182.441269 236.798019,199.174515 235.951660,216.096664 
	C234.907837,236.967102 221.954407,252.736465 201.127350,256.621826 
	C152.979111,257.000000 104.958214,257.000000 56.468658,257.000000 
z"/>
<path fill="#000000" opacity="1.000000" stroke="none" 
	d="
M138.531372,1.000000 
	C146.664871,4.333023 155.024078,6.628407 161.858948,11.201847 
	C179.399445,22.938784 188.733139,39.603657 189.065826,61.163857 
	C189.488953,88.583969 176.500534,107.767738 152.668518,119.488792 
	C136.876144,127.255783 120.121178,126.918999 103.682259,120.245674 
	C83.786385,112.169022 71.243164,97.372627 66.529152,76.762650 
	C62.114807,57.462811 66.126907,39.469055 78.746132,23.698750 
	C87.104530,13.253210 97.550476,6.166777 110.520905,2.850545 
	C112.239365,2.411175 113.996399,2.122689 115.867783,1.382162 
	C123.354248,1.000000 130.708496,1.000000 138.531372,1.000000 
z"/>
</svg>